<svg width="43" height="44" viewBox="0 0 43 44" fill="none" xmlns="http://www.w3.org/2000/svg">
<rect y="0.557617" width="42.6667" height="42.6667" rx="21.3333" fill="#F7F8F9"/>
<path d="M26.9895 27.5477C27.3366 27.2006 27.3366 26.6377 26.9895 26.2906L22.5903 21.8914L26.9907 17.4911C27.3378 17.1439 27.3378 16.5811 26.9907 16.234C26.6436 15.8869 26.0808 15.8869 25.7336 16.234L21.3332 20.6344L16.9329 16.234C16.5857 15.8868 16.0229 15.8868 15.6758 16.234C15.3287 16.5811 15.3287 17.1439 15.6758 17.4911L20.0762 21.8914L15.677 26.2906C15.3299 26.6377 15.3299 27.2006 15.677 27.5477C16.0241 27.8948 16.5869 27.8948 16.9341 27.5477L21.3332 23.1485L25.7324 27.5477C26.0795 27.8948 26.6424 27.8948 26.9895 27.5477Z" fill="#191D23"/>
</svg>
