<svg width="200" height="24" viewBox="0 0 200 24" fill="none" xmlns="http://www.w3.org/2000/svg">
<path d="M19.2109 6.92157C18.4905 7.24023 17.7301 7.43939 16.9296 7.55888C17.7301 7.0809 18.3705 6.3241 18.6506 5.40797C17.8902 5.84612 17.0497 6.16477 16.1292 6.36393C15.4088 5.60713 14.3682 5.12915 13.2475 5.12915C11.0863 5.12915 9.32531 6.88174 9.32531 9.03265C9.32531 9.3513 9.36533 9.63013 9.44538 9.90895C6.20353 9.74962 3.28187 8.19619 1.32075 5.80629C1.00057 6.40376 0.800456 7.04107 0.800456 7.75804C0.800456 9.11231 1.48084 10.3073 2.56146 11.0242C1.92109 10.9844 1.32075 10.8251 0.760433 10.5463V10.5861C0.760433 12.498 2.12121 14.0913 3.92223 14.4498C3.60205 14.5294 3.24185 14.5692 2.88164 14.5692C2.6415 14.5692 2.36134 14.5294 2.12121 14.4896C2.6415 16.043 4.08232 17.1981 5.8033 17.1981C4.44253 18.2338 2.76157 18.8711 0.920524 18.8711C0.600342 18.8711 0.280159 18.8711 0 18.8312C1.761 19.9465 3.80216 20.5838 6.04344 20.5838C13.2876 20.5838 17.2498 14.6091 17.2498 9.43097C17.2498 9.27164 17.2498 9.07248 17.2498 8.91316C18.0103 8.39534 18.6906 7.71821 19.2109 6.92157Z" fill="white"/>
<path d="M63.6555 22.8673V13.3649H60.4424V9.66162H63.6555V6.93056C63.6555 3.76119 65.6005 2.0354 68.4414 2.0354C69.8022 2.0354 70.9717 2.13623 71.3126 2.1813V5.49348L69.3423 5.49437C67.7973 5.49437 67.4981 6.22504 67.4981 7.29724V9.66162H71.1828L70.7031 13.3649H67.4981V22.8673H63.6555Z" fill="white"/>
<path d="M124.19 2.57858C127.3 2.57858 127.668 2.59017 128.897 2.64592C129.635 2.65491 130.367 2.78989 131.06 3.04498C131.562 3.2378 132.018 3.53318 132.399 3.9121C132.78 4.29102 133.076 4.74508 133.27 5.24506C133.527 5.93451 133.662 6.6626 133.671 7.39768C133.727 8.62025 133.739 8.98675 133.739 12.0815C133.739 15.1763 133.727 15.5428 133.671 16.7654C133.662 17.5005 133.527 18.2286 133.27 18.918C133.076 19.418 132.78 19.8721 132.399 20.251C132.018 20.6299 131.562 20.9253 131.06 21.1181C130.367 21.3732 129.635 21.5082 128.897 21.5172C127.669 21.5724 127.301 21.5845 124.19 21.5845C121.08 21.5845 120.712 21.5729 119.484 21.5172C118.745 21.5082 118.014 21.3732 117.321 21.1181C116.819 20.9253 116.362 20.6299 115.982 20.251C115.601 19.8721 115.304 19.418 115.11 18.918C114.854 18.2286 114.718 17.5005 114.709 16.7654C114.654 15.5428 114.642 15.1763 114.642 12.0815C114.642 8.98675 114.653 8.62025 114.709 7.39768C114.718 6.6626 114.854 5.93451 115.11 5.24506C115.304 4.74508 115.601 4.29102 115.982 3.9121C116.362 3.53318 116.819 3.2378 117.321 3.04498C118.014 2.78989 118.745 2.65491 119.484 2.64592C120.712 2.59072 121.081 2.57858 124.19 2.57858ZM124.19 0.48999C121.029 0.48999 120.631 0.503237 119.389 0.559536C118.422 0.578671 117.466 0.760823 116.56 1.09824C115.783 1.38949 115.08 1.8459 114.499 2.43562C113.906 3.01428 113.447 3.71483 113.154 4.48834C112.815 5.38945 112.632 6.34127 112.612 7.30329C112.557 8.53856 112.544 8.93487 112.544 12.081C112.544 15.2271 112.557 15.6234 112.614 16.8598C112.633 17.8218 112.816 18.7736 113.155 19.6748C113.447 20.4482 113.906 21.1487 114.499 21.7275C115.08 22.3173 115.784 22.7738 116.561 23.0649C117.467 23.4023 118.423 23.5844 119.39 23.6036C120.632 23.6588 121.029 23.6731 124.191 23.6731C127.354 23.6731 127.751 23.6599 128.993 23.6036C129.96 23.5844 130.916 23.4023 131.822 23.0649C132.595 22.7665 133.297 22.3108 133.884 21.7268C134.47 21.1429 134.928 20.4436 135.227 19.6737C135.566 18.7725 135.749 17.8207 135.768 16.8587C135.824 15.6234 135.837 15.2271 135.837 12.081C135.837 8.93487 135.824 8.53856 135.767 7.30219C135.748 6.34016 135.565 5.38835 135.226 4.48723C134.933 3.71382 134.475 3.01328 133.882 2.43452C133.3 1.84466 132.597 1.38824 131.819 1.09714C130.914 0.759719 129.958 0.577567 128.991 0.558432C127.75 0.503237 127.352 0.48999 124.19 0.48999Z" fill="white"/>
<path d="M124.188 6.12866C123.005 6.12866 121.849 6.47776 120.865 7.1318C119.882 7.78584 119.115 8.71546 118.663 9.80309C118.21 10.8907 118.092 12.0875 118.322 13.2421C118.553 14.3968 119.123 15.4574 119.959 16.2898C120.796 17.1222 121.861 17.6891 123.021 17.9188C124.182 18.1485 125.384 18.0306 126.477 17.5801C127.57 17.1296 128.504 16.3667 129.161 15.3878C129.818 14.409 130.169 13.2582 130.169 12.0809C130.169 10.5023 129.539 8.9883 128.417 7.87204C127.296 6.75577 125.774 6.12866 124.188 6.12866ZM124.188 15.9446C123.42 15.9446 122.67 15.718 122.031 15.2934C121.393 14.8689 120.895 14.2655 120.602 13.5595C120.308 12.8535 120.231 12.0766 120.381 11.3272C120.53 10.5777 120.9 9.88924 121.443 9.34889C121.986 8.80855 122.678 8.44057 123.431 8.29149C124.184 8.14241 124.964 8.21892 125.674 8.51136C126.383 8.80379 126.99 9.299 127.416 9.93438C127.843 10.5698 128.07 11.3168 128.07 12.0809C128.07 13.1056 127.661 14.0884 126.933 14.8129C126.205 15.5375 125.218 15.9446 124.188 15.9446Z" fill="white"/>
<path d="M130.406 7.28477C131.178 7.28477 131.804 6.66204 131.804 5.89385C131.804 5.12567 131.178 4.50293 130.406 4.50293C129.634 4.50293 129.009 5.12567 129.009 5.89385C129.009 6.66204 129.634 7.28477 130.406 7.28477Z" fill="white"/>
<path fill-rule="evenodd" clip-rule="evenodd" d="M188.208 0.48999C182.034 0.48999 177.068 5.43314 177.068 11.5774C177.068 16.4744 180.27 20.6322 184.68 22.1105C185.237 22.2029 185.423 21.8795 185.423 21.5561C185.423 21.279 185.423 20.586 185.423 19.662C182.313 20.355 181.663 18.1837 181.663 18.1837C181.152 16.8902 180.41 16.5668 180.41 16.5668C179.388 15.8738 180.503 15.8738 180.503 15.8738C181.617 15.9662 182.22 17.0288 182.22 17.0288C183.195 18.7381 184.82 18.2299 185.469 17.9527C185.562 17.2136 185.841 16.7516 186.166 16.4744C183.705 16.1972 181.106 15.2271 181.106 10.9769C181.106 9.77573 181.524 8.75938 182.266 8.02021C182.174 7.74303 181.756 6.63428 182.359 5.06356C182.359 5.06356 183.288 4.78638 185.423 6.2185C186.305 5.98752 187.28 5.84892 188.208 5.84892C189.137 5.84892 190.111 5.98752 190.993 6.2185C193.129 4.78638 194.057 5.06356 194.057 5.06356C194.66 6.58809 194.289 7.69683 194.15 8.02021C194.846 8.80558 195.31 9.77573 195.31 10.9769C195.31 15.2271 192.711 16.151 190.204 16.4282C190.622 16.7516 190.947 17.4445 190.947 18.4609C190.947 19.9392 190.947 21.1404 190.947 21.5099C190.947 21.7871 191.133 22.1567 191.736 22.0643C196.146 20.6322 199.349 16.4744 199.349 11.5774C199.349 5.43314 194.382 0.48999 188.208 0.48999Z" fill="white"/>
</svg>
