<svg width="104" height="18" viewBox="0 0 104 18" fill="none" xmlns="http://www.w3.org/2000/svg">
<g clip-path="url(#clip0_5_7346)">
<path d="M8.61981 1.21325C8.92536 0.487509 9.96603 0.48751 10.2716 1.21325L12.0749 5.49671C12.2038 5.80266 12.4951 6.01171 12.8294 6.03819L17.5103 6.40893C18.3034 6.47174 18.625 7.44951 18.0207 7.96086L14.4544 10.9789C14.1997 11.1945 14.0884 11.5327 14.1662 11.855L15.2558 16.3676C15.4404 17.1322 14.5985 17.7365 13.9195 17.3268L9.91195 14.9086C9.6257 14.7358 9.2657 14.7358 8.97945 14.9086L4.97191 17.3268C4.29291 17.7365 3.45099 17.1322 3.63559 16.3676L4.72518 11.855C4.80301 11.5327 4.69176 11.1945 4.43704 10.9789L0.870641 7.96086C0.266393 7.44951 0.58798 6.47174 1.38107 6.40893L6.06201 6.03819C6.39636 6.01171 6.68761 5.80266 6.81642 5.49671L8.61981 1.21325Z" fill="#FBAF5B"/>
<path d="M29.9532 1.21325C30.2587 0.487509 31.2994 0.48751 31.605 1.21325L33.4083 5.49671C33.5372 5.80266 33.8285 6.01171 34.1628 6.03819L38.8437 6.40893C39.6367 6.47174 39.9583 7.44951 39.3541 7.96086L35.7878 10.9789C35.533 11.1945 35.4217 11.5327 35.4996 11.855L36.5891 16.3676C36.7737 17.1322 35.9319 17.7365 35.2528 17.3268L31.2453 14.9086C30.9591 14.7358 30.5991 14.7358 30.3128 14.9086L26.3053 17.3268C25.6263 17.7365 24.7844 17.1322 24.969 16.3676L26.0586 11.855C26.1364 11.5327 26.0251 11.1945 25.7704 10.9789L22.204 7.96086C21.5998 7.44951 21.9214 6.47174 22.7144 6.40893L27.3954 6.03819C27.7297 6.01171 28.021 5.80266 28.1498 5.49671L29.9532 1.21325Z" fill="#FBAF5B"/>
<path d="M51.2864 1.21325C51.592 0.487509 52.6326 0.48751 52.9382 1.21325L54.7415 5.49671C54.8704 5.80266 55.1617 6.01171 55.496 6.03819L60.1769 6.40893C60.97 6.47174 61.2915 7.44951 60.6873 7.96086L57.121 10.9789C56.8663 11.1945 56.755 11.5327 56.8328 11.855L57.9224 16.3676C58.107 17.1322 57.2651 17.7365 56.5861 17.3268L52.5785 14.9086C52.2923 14.7358 51.9323 14.7358 51.6461 14.9086L47.6385 17.3268C46.9595 17.7365 46.1176 17.1322 46.3022 16.3676L47.3918 11.855C47.4696 11.5327 47.3584 11.1945 47.1036 10.9789L43.5372 7.96086C42.933 7.44951 43.2546 6.47174 44.0477 6.40893L48.7286 6.03819C49.063 6.01171 49.3542 5.80266 49.483 5.49671L51.2864 1.21325Z" fill="#FBAF5B"/>
<path d="M72.6197 1.21325C72.9253 0.487509 73.966 0.48751 74.2715 1.21325L76.0749 5.49671C76.2037 5.80266 76.495 6.01171 76.8293 6.03819L81.5102 6.40893C82.3033 6.47174 82.6249 7.44951 82.0206 7.96086L78.4543 10.9789C78.1996 11.1945 78.0883 11.5327 78.1661 11.855L79.2557 16.3676C79.4403 17.1322 78.5984 17.7365 77.9194 17.3268L73.9119 14.9086C73.6256 14.7358 73.2656 14.7358 72.9794 14.9086L68.9718 17.3268C68.2928 17.7365 67.4509 17.1322 67.6355 16.3676L68.7251 11.855C68.8029 11.5327 68.6917 11.1945 68.437 10.9789L64.8706 7.96086C64.2663 7.44951 64.5879 6.47174 65.381 6.40893L70.0619 6.03819C70.3963 6.01171 70.6875 5.80266 70.8163 5.49671L72.6197 1.21325Z" fill="#FBAF5B"/>
<path d="M93.953 1.21325C94.2585 0.487509 95.2992 0.48751 95.6047 1.21325L97.4081 5.49671C97.537 5.80266 97.8282 6.01171 98.1625 6.03819L102.843 6.40893C103.637 6.47174 103.958 7.44951 103.354 7.96086L99.7875 10.9789C99.5328 11.1945 99.4215 11.5327 99.4993 11.855L100.589 16.3676C100.774 17.1322 99.9316 17.7365 99.2526 17.3268L95.2451 14.9086C94.9588 14.7358 94.5988 14.7358 94.3126 14.9086L90.3051 17.3268C89.6261 17.7365 88.7841 17.1322 88.9687 16.3676L90.0583 11.855C90.1362 11.5327 90.0249 11.1945 89.7702 10.9789L86.2038 7.96086C85.5995 7.44951 85.9211 6.47174 86.7142 6.40893L91.3952 6.03819C91.7295 6.01171 92.0208 5.80266 92.1496 5.49671L93.953 1.21325Z" fill="#FBAF5B"/>
</g>
<defs>
<clipPath id="clip0_5_7346">
<rect width="103.111" height="16.7901" fill="white" transform="translate(0.556808 0.668945)"/>
</clipPath>
</defs>
</svg>
